HIERARCHY
ROOT Pelvis
{
	OFFSET 0.000000 0.000000 0.000000
	CHANNELS 6 Xposition Yposition Zposition Zrotation Yrotation Xrotation 
	JOINT Left_hip
	{
		OFFSET 0.067986 -0.089946 -0.007639
		CHANNELS 3 Zrotation Yrotation Xrotation
		JOINT Left_knee
		{
			OFFSET 0.036308 -0.388288 -0.004016
			CHANNELS 3 Zrotation Yrotation Xrotation
			JOINT Left_ankle
			{
				OFFSET -0.012264 -0.413250 -0.042878
				CHANNELS 3 Zrotation Yrotation Xrotation
				JOINT Left_foot
				{
					OFFSET 0.024043 -0.058563 0.118570
					CHANNELS 3 Zrotation Yrotation Xrotation
					End Site
					{
						OFFSET 0.000000 0.000000 0.000000
					}
				}
			}
		}
	}
	JOINT Right_hip
	{
		OFFSET -0.065648 -0.089374 -0.003858
		CHANNELS 3 Zrotation Yrotation Xrotation
		JOINT Right_knee
		{
			OFFSET -0.042132 -0.395021 -0.006361
			CHANNELS 3 Zrotation Yrotation Xrotation
			JOINT Right_ankle
			{
				OFFSET 0.014805 -0.413264 -0.041054
				CHANNELS 3 Zrotation Yrotation Xrotation
				JOINT Right_foot
				{
					OFFSET -0.021758 -0.049013 0.121832
					CHANNELS 3 Zrotation Yrotation Xrotation
					End Site
					{
						OFFSET 0.000000 0.000000 0.000000
					}
				}
			}
		}
	}
	JOINT Spine1
	{
		OFFSET -0.002755 0.104406 -0.022277
		CHANNELS 3 Zrotation Yrotation Xrotation
		JOINT Spine2
		{
			OFFSET 0.004136 0.129393 -0.002186
			CHANNELS 3 Zrotation Yrotation Xrotation
			JOINT Spine3
			{
				OFFSET 0.001906 0.049304 0.025578
				CHANNELS 3 Zrotation Yrotation Xrotation
				JOINT Neck
				{
					OFFSET -0.004620 0.210958 -0.044063
					CHANNELS 3 Zrotation Yrotation Xrotation
					JOINT Head
					{
						OFFSET 0.003833 0.067393 0.052435
						CHANNELS 3 Zrotation Yrotation Xrotation
						End Site
						{
							OFFSET 0.000000 0.000000 0.000000
						}
					}
				}
				JOINT Left_collar
				{
					OFFSET 0.070771 0.116689 -0.037192
					CHANNELS 3 Zrotation Yrotation Xrotation
					JOINT Left_shoulder
					{
						OFFSET 0.080652 0.031596 -0.005617
						CHANNELS 3 Zrotation Yrotation Xrotation
						JOINT Left_elbow
						{
							OFFSET 0.262654 -0.015020 -0.027939
							CHANNELS 3 Zrotation Yrotation Xrotation
							JOINT Left_wrist
							{
								OFFSET 0.250438 0.010062 -0.000990
								CHANNELS 3 Zrotation Yrotation Xrotation
								JOINT Left_palm
								{
									OFFSET 0.081198 -0.010037 -0.013706
									CHANNELS 3 Zrotation Yrotation Xrotation
									End Site
									{
										OFFSET 0.000000 0.000000 0.000000
									}
								}
							}
						}
					}
				}
				JOINT Right_collar
				{
					OFFSET -0.072972 0.115556 -0.040762
					CHANNELS 3 Zrotation Yrotation Xrotation
					JOINT Right_shoulder
					{
						OFFSET -0.082917 0.031841 -0.006673
						CHANNELS 3 Zrotation Yrotation Xrotation
						JOINT Right_elbow
						{
							OFFSET -0.252882 -0.013790 -0.020410
							CHANNELS 3 Zrotation Yrotation Xrotation
							JOINT Right_wrist
							{
								OFFSET -0.255570 0.009163 -0.005138
								CHANNELS 3 Zrotation Yrotation Xrotation
								JOINT Right_palm
								{
									OFFSET -0.080804 -0.007282 -0.010415
									CHANNELS 3 Zrotation Yrotation Xrotation
									End Site
									{
										OFFSET 0.000000 0.000000 0.000000
									}
								}
							}
						}
					}
				}
			}
		}
	}
}
MOTION
Frames: 10
Frame Time: 0.100000
0.014811 0.001751 -0.000345 177.138524 18.337599 -14.444653 9.176199 4.446751 7.267266 -3.511530 -8.423174 -4.583237 -5.324306 2.189750 -3.955276 6.800806 9.726832 -0.671629 -7.573396 -3.497399 5.945920 5.758561 4.248311 -1.302729 6.116100 -7.499657 -7.726691 -3.053983 0.407048 6.679885 2.703103 2.385166 -0.751618 1.667228 -5.097467 4.569048 0.374805 -0.913490 -1.560180 11.918231 2.597511 8.672247 -5.205958 3.428824 4.092869 -17.071937 -7.415840 -3.374071 -31.934876 -0.807721 5.023050 -3.826448 -46.577087 26.433707 -2.591418 -7.827445 17.941554 -20.135328 -9.266492 -26.613328 -2.185780 11.046613 -17.323963 -12.428394 35.989298 -28.477561 -142.545038 37.441213 -117.595940 -19.105027 14.881443 8.600819 21.952622 11.274328 -9.250712 
0.010752 0.002016 -0.001641 177.281909 17.242702 -14.031349 8.903059 5.102152 7.200005 -3.502763 -7.991497 -4.583788 -5.070784 1.875384 -4.228950 7.024441 9.206166 -0.438562 -7.815239 -3.393230 5.421765 5.609981 4.733334 -1.216656 6.643427 -7.186645 -7.807837 -4.087915 0.345347 6.599365 2.896813 2.526388 -0.955441 1.670166 -5.539581 4.729557 0.231027 -1.185292 -1.683310 12.321493 3.113756 8.410584 -5.678861 4.606196 3.263849 -20.450970 -8.277463 -1.627514 -37.613568 2.297508 7.988492 -11.592003 -31.511365 34.031088 -4.119350 -6.339653 19.236304 -21.999407 -11.471554 -29.951525 -1.332985 11.261372 -17.077326 -12.913250 36.727276 -29.106437 -142.876408 37.717045 -118.112955 -20.566029 14.980796 9.274051 24.488618 13.009015 -11.325320 
0.006351 0.002168 -0.002120 177.454183 16.095554 -13.782640 8.598169 5.293197 7.377249 -3.583005 -7.105882 -4.609191 -4.601748 1.715703 -4.417045 6.739543 9.083148 -0.509709 -8.083352 -3.137353 4.916850 5.516714 4.975329 -0.857834 6.795688 -6.555783 -7.786172 -4.608619 -0.036269 6.472784 3.269190 2.600085 -1.134119 1.318927 -5.292150 5.059585 -0.078322 -1.230718 -1.754580 12.532324 2.986940 8.187807 -6.068306 5.785173 2.604777 -23.695947 -7.674087 -0.277961 -42.967840 4.872599 9.687663 -14.007887 -23.009505 35.797321 -7.693836 -5.674165 15.773521 -22.246160 -12.135628 -30.317421 -0.410079 10.966005 -16.554938 -13.535091 37.252999 -29.708714 -143.191172 37.688157 -118.288079 -20.025638 15.019370 10.130058 25.438292 13.738630 -11.785572 
0.003603 0.002174 -0.002337 177.399040 15.718848 -13.716597 8.511440 5.060556 7.478077 -3.698836 -6.715445 -4.705892 -4.279917 2.057801 -4.487279 6.664573 8.562778 -0.737647 -8.138735 -3.264592 4.646481 5.431286 5.166473 -0.584013 6.806709 -6.186052 -7.602217 -4.871212 -0.414071 5.874895 3.406935 2.594132 -1.221657 0.848348 -4.728520 4.833030 -0.184206 -1.072240 -1.238738 12.089575 1.949871 8.287037 -5.683712 6.809171 2.008222 -24.353169 -5.110843 -0.312905 -47.673325 6.754564 9.394463 -13.843338 -22.566668 33.010518 -5.932971 -4.835928 7.374712 -22.428333 -12.229001 -27.991300 -0.739921 9.541899 -16.467073 -12.588855 38.367187 -29.609695 -143.732263 37.542733 -118.395365 -21.041520 14.502479 11.442757 25.606925 14.188585 -11.508367 
0.002402 0.001912 -0.002021 177.146324 15.683782 -13.687541 8.620688 4.534343 7.500556 -3.712134 -6.578458 -4.873041 -4.350875 2.767387 -4.679935 7.127579 7.317357 -0.569630 -7.973103 -3.429958 4.586927 5.436839 5.194332 -0.630507 6.882103 -6.006713 -7.389861 -4.893196 -0.841345 5.732667 2.997391 2.836846 -1.600494 0.911950 -4.268335 4.749246 -0.044441 -0.749563 -0.820750 11.771266 1.321685 8.625649 -5.140160 6.899099 2.020986 -23.784540 -3.173391 -0.250163 -49.688699 8.381234 10.401966 -15.492399 -27.040287 33.743774 -3.206373 -5.007348 0.217969 -22.974978 -12.294265 -26.122594 -0.870732 8.648948 -16.175445 -12.107475 39.075598 -29.449638 -143.957375 37.526433 -118.449661 -22.018754 14.138347 11.955428 25.567414 14.519898 -11.593443 
0.002068 0.001931 -0.002152 176.908535 16.167483 -13.950055 8.766798 4.230151 7.478045 -3.765730 -6.924145 -4.655515 -4.234497 2.828265 -4.816285 7.023118 7.098369 -0.354642 -7.871215 -3.631382 4.885094 5.447255 5.060571 -0.601268 6.785669 -6.150893 -7.407310 -4.714426 -0.861469 5.627950 2.544588 3.120863 -1.590068 0.915256 -4.175460 4.894150 -0.013137 -0.635941 -0.685325 11.795550 1.319906 8.980780 -4.761692 6.800842 1.951439 -23.455635 -2.870680 -0.274914 -49.692809 8.490175 10.339109 -15.599130 -27.562589 33.201887 -1.997362 -4.630359 -1.665689 -23.155251 -12.385243 -25.502841 -0.798449 8.494707 -16.113423 -11.399402 39.440494 -29.030668 -144.285939 37.469365 -118.447715 -22.419113 13.979624 12.150381 25.683234 14.734566 -11.539509 
0.001696 0.002042 -0.002571 176.738307 16.749862 -14.239536 8.859033 4.050035 7.571255 -3.844530 -7.209619 -4.643953 -4.196832 2.655623 -4.826172 6.907388 7.095451 -0.137439 -7.856868 -3.735619 5.238161 5.453221 4.795666 -0.593065 6.597014 -6.332313 -7.469180 -4.385970 -0.823877 5.751013 2.143699 3.286357 -1.684184 0.986207 -4.256653 5.297857 -0.049986 -0.609074 -0.704122 11.907941 1.597660 9.540425 -4.711281 6.529192 2.235184 -23.390358 -3.218981 -0.083715 -48.947028 8.212887 10.602246 -16.195054 -27.750357 33.735076 -2.572641 -4.824030 -1.983664 -23.067516 -12.303278 -25.319774 -0.440392 8.839705 -15.936714 -11.073674 39.803817 -28.702931 -144.398477 37.631695 -118.394574 -21.842091 13.884645 12.183646 25.636274 14.770687 -11.458126 
0.000842 0.002256 -0.003657 176.640085 17.349253 -14.403213 8.775478 3.840746 7.418733 -3.875092 -7.405029 -4.465806 -4.005420 2.344358 -4.813717 6.571431 7.430193 -0.055688 -7.964711 -3.844282 5.438140 5.488338 4.433859 -0.584861 6.304726 -6.463178 -7.502113 -3.860508 -0.757175 6.011145 2.007759 3.393720 -1.652623 1.037676 -4.311692 5.471363 -0.143451 -0.643329 -0.811486 12.188282 1.847696 10.000294 -4.838045 6.279986 2.782548 -23.628687 -3.590677 -0.060240 -48.062143 7.460685 10.655416 -16.305380 -27.470407 33.874328 -4.292551 -5.093198 -1.455985 -22.752258 -12.079995 -25.139650 0.123878 9.091414 -15.855054 -11.098239 40.040339 -28.587723 -144.267635 37.690813 -118.194477 -20.620741 13.774799 12.198555 25.421663 14.654745 -11.175475 
-0.000685 0.002519 -0.005369 176.730776 18.012715 -14.680857 8.511710 3.843008 7.478713 -3.968213 -7.724548 -4.392127 -3.736002 1.795572 -4.586839 5.831776 8.356265 -0.267627 -8.305304 -3.907702 5.839707 5.431072 4.108275 -0.660073 6.234861 -6.752813 -7.524652 -3.616502 -0.112813 6.050864 2.105848 3.462954 -1.333922 1.090625 -4.430665 5.607235 -0.329631 -0.746235 -0.857775 12.256230 2.595108 10.171133 -5.276293 5.717449 3.415630 -23.787036 -4.227201 -0.351725 -45.928042 5.469166 9.506229 -14.818003 -26.949309 32.069321 -5.057836 -5.314604 1.369279 -22.139377 -11.778007 -24.858189 1.388310 9.140994 -15.593766 -9.771627 39.387347 -27.336222 -143.547667 37.589256 -117.634326 -21.378441 14.210442 11.685130 25.642476 14.525132 -10.785297 
-0.001730 0.003012 -0.007518 176.737613 18.982495 -14.986259 8.251824 3.524735 7.547716 -4.030097 -8.263472 -4.546342 -3.485387 1.835851 -4.326811 4.986627 8.476522 -0.692073 -8.582963 -4.123041 6.243816 5.355201 3.676987 -0.776216 6.320192 -7.089321 -7.474547 -3.433398 0.843939 5.783040 1.918546 3.388201 -0.834319 1.675365 -4.568591 5.104267 -0.259867 -0.870549 -0.508353 10.842041 3.798552 9.929768 -5.790126 3.961694 4.175402 -22.215975 -3.297422 -1.045390 -42.844146 2.313192 7.627092 -12.057880 -33.260489 28.175345 0.366471 -5.280335 -0.126740 -21.687594 -11.248981 -22.044174 4.382480 7.639384 -14.331575 -3.008116 37.693369 -21.975021 -140.405078 38.492598 -115.307378 -27.355718 14.607949 9.336844 26.568225 14.671435 -10.369139 
